<svg width="153" height="53" viewBox="0 0 153 53" fill="none" xmlns="http://www.w3.org/2000/svg">
<path d="M42.4414 32.7938C48.5695 26.6656 48.5695 16.6867 42.4414 10.5586C36.3133 4.43049 26.3344 4.43049 20.2062 10.5586C17.1422 13.6227 15.6101 17.6391 15.6101 21.6969C15.6101 25.7547 17.1422 29.7711 20.2062 32.8352C26.3344 38.9219 36.3133 38.9219 42.4414 32.7938ZM21.9453 31.0547C16.7695 25.8789 16.7695 17.4735 21.9453 12.2977C27.1211 7.1219 35.5265 7.1219 40.7023 12.2977C43.2695 14.8649 44.5945 18.2602 44.5945 21.6555C44.5945 25.0508 43.3109 28.4461 40.7023 31.0133C35.5265 36.1891 27.1211 36.1891 21.9453 31.0547Z" fill="black"/>
<path d="M5.9211 43.3524C5.9211 44.3047 6.29375 45.2571 6.99766 46.0024C8.44688 47.4516 10.807 47.4516 12.2563 46.0024L17.5563 40.7024C18.2602 39.9985 18.6328 39.0461 18.6328 38.0524C18.6328 37.4727 18.5086 36.9344 18.2602 36.4375L19.2953 35.4024C19.7922 34.9055 19.7922 34.1188 19.2953 33.6633C18.7984 33.1664 18.0117 33.1664 17.5563 33.6633L16.5211 34.6985C16.0242 34.45 15.4859 34.3258 14.9063 34.3258C13.9125 34.3258 12.9602 34.6985 12.2563 35.4024L7.03907 40.7024C6.29375 41.4477 5.9211 42.4 5.9211 43.3524ZM14.9477 36.8102C15.2789 36.8102 15.6102 36.9344 15.8172 37.1828C16.0656 37.4313 16.1898 37.7211 16.1898 38.0524C16.1898 38.3836 16.0656 38.7149 15.8172 38.9219L10.5586 44.1805C10.0617 44.6774 9.275 44.6774 8.81953 44.1805C8.32266 43.6836 8.32266 42.8969 8.81953 42.4414L14.0367 37.1828C14.2852 36.9344 14.6164 36.8102 14.9477 36.8102Z" fill="black"/>
<path d="M39.9274 16.03L31.0547 24.9028L27.3577 21.2058" stroke="black" stroke-width="3" stroke-miterlimit="10"/>
<path d="M37.9773 20.3278C38.1067 20.8453 38.1714 21.3629 38.1714 21.9452C38.1714 25.8917 35.0012 29.0619 31.0547 29.0619C27.1082 29.0619 23.938 25.8917 23.938 21.9452C23.938 17.9987 27.1082 14.8285 31.0547 14.8285C32.9956 14.8285 34.7424 15.6049 35.9717 16.8341L36.8774 15.9283C35.3894 14.4403 33.3191 13.5345 31.0547 13.5345C26.3965 13.5345 22.644 17.287 22.644 21.9452C22.644 26.6034 26.3965 30.3558 31.0547 30.3558C35.7129 30.3558 39.4653 26.6034 39.4653 21.9452C39.4653 21.0394 39.3359 20.1337 39.0124 19.2926L37.9773 20.3278Z" fill="black"/>
<path d="M69.9244 31V23.1265L70.0694 21.43L69.9244 17.921V14.8615H74.1439V31H69.9244ZM55.7434 15.688L55.5114 12.44H74.0424V15.688H55.7434ZM70.6929 23.837C70.5383 23.7887 70.3691 23.7597 70.1854 23.75C70.0018 23.7307 69.8374 23.721 69.6924 23.721C69.0061 23.721 68.3439 23.8998 67.7059 24.2575C67.0776 24.6152 66.3719 25.0985 65.5889 25.7075C65.0283 26.1232 64.4241 26.5292 63.7764 26.9255C63.1384 27.3218 62.4279 27.6457 61.6449 27.897C60.8619 28.1483 59.9629 28.2837 58.9479 28.303L58.0199 28.3175V24.4895H58.5129C59.2186 24.4702 59.8373 24.3445 60.3689 24.1125C60.9006 23.8708 61.3163 23.5277 61.6159 23.083C61.9156 22.6287 62.0654 22.0825 62.0654 21.4445V21.3285C62.0654 20.6035 61.9301 19.9703 61.6594 19.429C61.3984 18.8877 61.0118 18.4382 60.4994 18.0805C59.9871 17.7132 59.3636 17.4377 58.6289 17.254V15.3835L60.9199 14.8035C61.9543 14.8808 62.8436 15.1708 63.5879 15.6735C64.3323 16.1762 64.9074 16.8287 65.3134 17.631C65.7194 18.4333 65.9224 19.3323 65.9224 20.328V20.4295C65.9224 21.6088 65.6083 22.619 64.9799 23.46C64.3516 24.2913 63.3994 24.9825 62.1234 25.5335L62.5439 23.75C62.8339 23.5567 63.1384 23.3392 63.4574 23.0975C63.7861 22.8558 64.1003 22.6287 64.3999 22.416C65.2023 21.8167 66.0143 21.2608 66.8359 20.7485C67.6576 20.2362 68.5324 19.98 69.4604 19.98C69.7118 19.98 69.9486 19.9993 70.1709 20.038C70.4029 20.067 70.6349 20.1202 70.8669 20.1975L70.6929 23.837ZM72.4329 14.064H74.1439V20.27H72.4329V14.064ZM72.4329 15.688V12.44H76.4929L76.7249 15.688H72.4329ZM84.3726 30.9685C82.0556 30.9685 80.2846 30.44 79.0596 29.383C77.8416 28.319 77.1731 26.744 77.0541 24.658L76.8756 21.6235H79.8681L80.0571 24.4795C80.1201 25.3475 80.3126 26.0685 80.6346 26.6425C80.9566 27.2095 81.4221 27.633 82.0311 27.913C82.6471 28.193 83.4171 28.333 84.3411 28.333C85.4541 28.333 86.3081 28.088 86.9031 27.598C87.4981 27.101 87.7956 26.338 87.7956 25.309V24.259C87.7956 23.671 87.6766 23.2335 87.4386 22.9465C87.2076 22.6525 86.8541 22.5055 86.3781 22.5055C85.9231 22.5055 85.5801 22.642 85.3491 22.915C85.1181 23.188 85.0026 23.5975 85.0026 24.1435C85.0026 24.3675 85.0026 24.5985 85.0026 24.8365C85.0026 25.0675 85.0026 25.2985 85.0026 25.5295H81.9786C81.9786 25.2985 81.9786 25.0675 81.9786 24.8365C81.9786 24.6055 81.9786 24.3745 81.9786 24.1435C81.9786 22.7925 82.3496 21.781 83.0916 21.109C83.8336 20.437 84.8941 20.101 86.2731 20.101C87.7641 20.101 88.9016 20.4685 89.6856 21.2035C90.4766 21.9385 90.8721 22.9815 90.8721 24.3325V25.4665C90.8721 27.2725 90.3121 28.641 89.1921 29.572C88.0721 30.503 86.4656 30.9685 84.3726 30.9685ZM75.5106 19.912L75.3426 17.56H92.3211L92.4786 19.912H75.5106ZM90.9701 19.9225L90.8126 17.5705H98.1941L98.3516 19.9225H90.9701ZM97.0916 19.1245C96.0836 19.9015 95.5796 20.885 95.5796 22.075C95.5796 22.621 95.6461 23.1145 95.7791 23.5555C95.9121 23.9965 96.0696 24.4235 96.2516 24.8365C96.4336 25.2495 96.5911 25.6835 96.7241 26.1385C96.8571 26.5935 96.9236 27.1045 96.9236 27.6715C96.9236 29.0225 96.4721 30.132 95.5691 31H92.4821C93.4131 30.055 93.8786 28.9455 93.8786 27.6715C93.8786 27.0905 93.8121 26.576 93.6791 26.128C93.5461 25.68 93.3886 25.2565 93.2066 24.8575C93.0246 24.4515 92.8671 24.028 92.7341 23.587C92.6011 23.146 92.5346 22.6455 92.5346 22.0855C92.5346 20.8885 92.9896 19.919 93.8996 19.177L97.0916 19.1245ZM111.146 31.0315L102.536 28.312V24.5215L105.938 23.2825V23.0935L101.885 21.571V18.7465L103.008 18.6205C103.645 18.9775 104.282 19.3485 104.919 19.7335C105.563 20.1115 106.207 20.5105 106.851 20.9305C107.495 21.3435 108.139 21.781 108.783 22.243V24.721L105.066 26.1385L105.539 25.225V27.5245L105.129 26.5375L111.062 28.4485L110.862 29.047L110.736 26.59V18.421H113.771V31.0315H111.146ZM100.394 19.912L100.226 17.56H113.193V19.912H100.394ZM112.532 18.736H113.771V23.23H112.532V18.736ZM112.532 19.912V17.56H115.472L115.64 19.912H112.532ZM116.615 31V19.2295H119.67V31H116.615ZM114.903 19.912L114.746 17.56H119.492V19.912H114.903ZM118.431 18.736H119.67V23.23H118.431V18.736ZM118.431 19.912V17.56H121.361L121.529 19.912H118.431ZM127.508 31.0105C125.828 31.0105 124.54 30.629 123.644 29.866C122.748 29.103 122.3 27.9165 122.3 26.3065V18.799H125.335V26.296C125.335 27.01 125.51 27.5385 125.86 27.8815C126.21 28.2245 126.752 28.396 127.487 28.396C127.928 28.396 128.313 28.3155 128.642 28.1545C128.971 27.9865 129.251 27.766 129.482 27.493C129.594 27.36 129.692 27.2165 129.776 27.0625C129.86 26.9015 129.93 26.737 129.986 26.569C130.049 26.394 130.095 26.219 130.123 26.044C130.151 25.869 130.165 25.694 130.165 25.519C130.165 25.12 130.046 24.8085 129.808 24.5845C129.57 24.3605 129.199 24.2135 128.695 24.1435L124.358 23.566V21.067L129.083 21.7075C130.539 21.9105 131.596 22.3165 132.254 22.9255C132.919 23.5345 133.252 24.4025 133.252 25.5295C133.252 25.7605 133.234 26.009 133.199 26.275C133.171 26.534 133.122 26.8 133.052 27.073C132.989 27.339 132.898 27.605 132.779 27.871C132.667 28.137 132.531 28.3925 132.37 28.6375C131.95 29.2955 131.344 29.8555 130.553 30.3175C129.769 30.7795 128.754 31.0105 127.508 31.0105ZM120.379 19.912L120.211 17.56H134.228L134.396 19.912H120.379ZM135.297 31V19.2295H138.353V31H135.297ZM133.586 19.912L133.428 17.56H138.174V19.912H133.586ZM137.114 18.736H138.353V23.23H137.114V18.736ZM137.114 19.912V17.56H140.043L140.211 19.912H137.114ZM151.514 33.1L140.804 29.3095L140.972 26.653L141.413 26.7265C142.008 26.8175 142.582 26.8945 143.135 26.9575C143.695 27.0135 144.245 27.0415 144.784 27.0415C145.316 27.0415 145.778 26.996 146.17 26.905C146.562 26.814 146.887 26.6775 147.146 26.4955C147.405 26.3065 147.598 26.0755 147.724 25.8025C147.85 25.5295 147.913 25.211 147.913 24.847V24.4165C147.913 23.8145 147.748 23.349 147.419 23.02C147.09 22.691 146.618 22.53 146.002 22.537C145.407 22.544 144.948 22.7085 144.626 23.0305C144.304 23.3525 144.143 23.804 144.143 24.385C144.143 24.49 144.143 24.6195 144.143 24.7735C144.143 24.9205 144.143 25.0745 144.143 25.2355H141.056C141.056 25.0745 141.056 24.917 141.056 24.763C141.056 24.609 141.056 24.4655 141.056 24.3325C141.056 22.9465 141.473 21.9 142.306 21.193C143.139 20.479 144.36 20.122 145.97 20.122C147.573 20.122 148.812 20.486 149.687 21.214C150.562 21.942 151 23.013 151 24.427V24.889C151 25.708 150.835 26.408 150.506 26.989C150.184 27.563 149.705 28.0005 149.068 28.3015C148.438 28.5955 147.661 28.7425 146.737 28.7425C146.436 28.7425 146.114 28.7145 145.771 28.6585C145.435 28.5955 145.095 28.5045 144.752 28.3855L147.052 28.0285L146.936 28.8475L148.28 29.2675L151.724 30.4225L151.514 33.1ZM139.492 19.912L139.324 17.56H152.354L152.512 19.912H139.492ZM151.399 16.8985L149.026 17.7805L148.238 17.875C148.462 17.623 148.574 17.2975 148.574 16.8985C148.574 16.5345 148.459 16.279 148.228 16.132C148.004 15.985 147.64 15.9115 147.136 15.9115H144.29C142.841 15.9115 141.767 15.635 141.067 15.082C140.374 14.529 140.027 13.6785 140.027 12.5305V12.1735H142.705L142.736 12.436C142.771 12.842 142.915 13.129 143.167 13.297C143.426 13.458 143.832 13.5385 144.385 13.5385H147.545C148.371 13.5385 149.071 13.647 149.645 13.864C150.226 14.074 150.667 14.403 150.968 14.851C151.276 15.292 151.43 15.866 151.43 16.573C151.43 16.629 151.427 16.685 151.42 16.741C151.413 16.79 151.406 16.8425 151.399 16.8985Z" fill="black"/>
</svg>
