<svg width="39" height="38" viewBox="0 0 39 38" fill="none" xmlns="http://www.w3.org/2000/svg">
<path d="M6.65353 34.8333C5.77019 34.8333 5.01401 34.5232 4.38497 33.9031C3.75593 33.2829 3.44141 32.5375 3.44141 31.6666V14.25C3.44141 13.3791 3.75593 12.6336 4.38497 12.0135C5.01401 11.3934 5.77019 11.0833 6.65353 11.0833H14.6838V6.33329C14.6838 5.46246 14.9984 4.71697 15.6274 4.09683C16.2564 3.4767 17.0126 3.16663 17.896 3.16663H21.1081C21.9914 3.16663 22.7476 3.4767 23.3766 4.09683C24.0057 4.71697 24.3202 5.46246 24.3202 6.33329V11.0833H32.3505C33.2338 11.0833 33.99 11.3934 34.6191 12.0135C35.2481 12.6336 35.5626 13.3791 35.5626 14.25V31.6666C35.5626 32.5375 35.2481 33.2829 34.6191 33.9031C33.99 34.5232 33.2338 34.8333 32.3505 34.8333H6.65353ZM6.65353 31.6666H32.3505V14.25H24.3202C24.3202 15.1208 24.0057 15.8663 23.3766 16.4864C22.7476 17.1066 21.9914 17.4166 21.1081 17.4166H17.896C17.0126 17.4166 16.2564 17.1066 15.6274 16.4864C14.9984 15.8663 14.6838 15.1208 14.6838 14.25H6.65353V31.6666ZM9.86565 28.5H19.502V27.7875C19.502 27.3388 19.3749 26.9232 19.1206 26.5406C18.8663 26.1579 18.5116 25.8611 18.0566 25.65C17.5212 25.4125 16.9792 25.2343 16.4304 25.1156C15.8817 24.9968 15.2995 24.9375 14.6838 24.9375C14.0682 24.9375 13.486 24.9968 12.9372 25.1156C12.3885 25.2343 11.8465 25.4125 11.3111 25.65C10.8561 25.8611 10.5014 26.1579 10.2471 26.5406C9.99279 26.9232 9.86565 27.3388 9.86565 27.7875V28.5ZM22.7141 26.125H29.1384V23.75H22.7141V26.125ZM14.6838 23.75C15.353 23.75 15.9218 23.5191 16.3903 23.0573C16.8587 22.5954 17.0929 22.0347 17.0929 21.375C17.0929 20.7152 16.8587 20.1545 16.3903 19.6927C15.9218 19.2309 15.353 19 14.6838 19C14.0146 19 13.4458 19.2309 12.9774 19.6927C12.509 20.1545 12.2747 20.7152 12.2747 21.375C12.2747 22.0347 12.509 22.5954 12.9774 23.0573C13.4458 23.5191 14.0146 23.75 14.6838 23.75ZM22.7141 21.375H29.1384V19H22.7141V21.375ZM17.896 14.25H21.1081V6.33329H17.896V14.25Z" fill="#4D5959"/>
</svg>
