<svg width="360" height="360" viewBox="0 0 360 360" fill="none" xmlns="http://www.w3.org/2000/svg">
<path d="M288.281 222.75C329.906 181.125 329.906 113.344 288.281 71.7188C246.656 30.0938 178.875 30.0938 137.25 71.7188C116.438 92.5313 106.031 119.813 106.031 147.375C106.031 174.938 116.438 202.219 137.25 223.031C178.875 264.375 246.656 264.375 288.281 222.75ZM149.063 210.937C113.906 175.781 113.906 118.688 149.063 83.5313C184.219 48.375 241.313 48.375 276.469 83.5313C293.906 100.969 302.906 124.031 302.906 147.094C302.906 170.156 294.187 193.219 276.469 210.656C241.313 245.813 184.219 245.812 149.063 210.937Z" fill="black"/>
<path d="M40.2188 294.469C40.2188 300.937 42.75 307.406 47.5313 312.469C57.375 322.312 73.4063 322.312 83.25 312.469L119.25 276.469C124.031 271.687 126.563 265.219 126.563 258.469C126.563 254.531 125.719 250.875 124.031 247.5L131.063 240.469C134.437 237.094 134.437 231.75 131.063 228.656C127.688 225.281 122.344 225.281 119.25 228.656L112.219 235.687C108.844 234 105.188 233.156 101.25 233.156C94.5 233.156 88.0313 235.687 83.25 240.469L47.8125 276.469C42.75 281.531 40.2188 288 40.2188 294.469ZM101.531 250.031C103.781 250.031 106.031 250.875 107.438 252.562C109.125 254.25 109.969 256.219 109.969 258.469C109.969 260.719 109.125 262.969 107.438 264.375L71.7188 300.094C68.3438 303.469 63 303.469 59.9063 300.094C56.5313 296.719 56.5313 291.375 59.9063 288.281L95.3438 252.562C97.0313 250.875 99.2813 250.031 101.531 250.031Z" fill="black"/>
<path d="M271.205 108.883L210.937 169.151L185.826 144.039" stroke="black" stroke-width="3" stroke-miterlimit="10"/>
<path d="M257.959 138.075C258.838 141.591 259.277 145.106 259.277 149.062C259.277 175.868 237.744 197.401 210.937 197.401C184.131 197.401 162.598 175.868 162.598 149.062C162.598 122.255 184.131 100.722 210.937 100.722C224.121 100.722 235.986 105.995 244.336 114.345L250.488 108.192C240.381 98.085 226.318 91.9326 210.937 91.9326C179.297 91.9326 153.809 117.421 153.809 149.062C153.809 180.702 179.297 206.19 210.937 206.19C242.578 206.19 268.066 180.702 268.066 149.062C268.066 142.909 267.187 136.757 264.99 131.044L257.959 138.075Z" fill="black"/>
</svg>
